<?xml version="1.0" encoding="utf-8"?>
<svg width="16" height="16" viewBox="0 0 16 16" fill="none" xmlns="http://www.w3.org/2000/svg">
  <defs>
    <linearGradient id="gradient_1" gradientUnits="userSpaceOnUse" x1="8" y1="0" x2="8" y2="16">
      <stop offset="0" stop-color="#87AAE6" />
      <stop offset="1" stop-color="#29295C" />
    </linearGradient>
    <clipPath id="clip_path_2">
      <rect width="16" height="16" />
    </clipPath>
  </defs>
  <g>
    <path d="M0 8C0 3.58172 3.58172 0 8 0C12.4183 0 16 3.58172 16 8C16 12.4183 12.4183 16 8 16C3.58172 16 0 12.4183 0 8Z" fill="url(#gradient_1)" fill-rule="evenodd" />
    <path d="M5.59336 5.52734Q5.52695 6.44531 4.91562 6.97266Q4.3043 7.5 3.3043 7.5Q2.21055 7.5 1.58359 6.76367Q0.95664 6.02734 0.95664 4.74219L0.95664 4.39453Q0.95664 3.57422 1.2457 2.94922Q1.53477 2.32422 2.07187 1.99023Q2.60898 1.65625 3.31992 1.65625Q4.3043 1.65625 4.90586 2.18359Q5.50742 2.71094 5.60117 3.66406L4.4293 3.66406Q4.38633 3.11328 4.12266 2.86523Q3.85898 2.61719 3.31992 2.61719Q2.73398 2.61719 2.44297 3.03711Q2.15195 3.45703 2.14414 4.33984L2.14414 4.76953Q2.14414 5.69141 2.42344 6.11719Q2.70273 6.54297 3.3043 6.54297Q3.84727 6.54297 4.11484 6.29492Q4.38242 6.04688 4.42148 5.52734L5.59336 5.52734ZM8.65586 1.73438L9.82773 1.73438L9.82773 5.67188Q9.82773 6.21484 9.5875 6.63086Q9.34727 7.04688 8.90977 7.27344Q8.47227 7.5 7.92148 7.5Q7.01914 7.5 6.51523 7.04102Q6.01133 6.58203 6.01133 5.74219L7.19102 5.74219Q7.19102 6.16016 7.3668 6.35938Q7.54258 6.55859 7.92148 6.55859Q8.25742 6.55859 8.45664 6.32813Q8.65586 6.09766 8.65586 5.67188L8.65586 1.73438ZM10.8316 7.42188L10.8316 1.73438L12.8238 1.73438Q13.859 1.73438 14.3941 2.13086Q14.9293 2.52734 14.9293 3.29297Q14.9293 3.71094 14.7145 4.0293Q14.4996 4.34766 14.1168 4.49609Q14.5543 4.60547 14.8062 4.9375Q15.0582 5.26953 15.0582 5.75Q15.0582 6.57031 14.5348 6.99219Q14.0113 7.41406 13.0426 7.42188L10.8316 7.42188ZM12.0035 4.94531L12.0035 6.48047L13.0074 6.48047Q13.4215 6.48047 13.6539 6.2832Q13.8863 6.08594 13.8863 5.73828Q13.8863 4.95703 13.0777 4.94531L12.0035 4.94531ZM12.0035 4.11719L12.8707 4.11719Q13.7574 4.10156 13.7574 3.41016Q13.7574 3.02344 13.5328 2.85352Q13.3082 2.68359 12.8238 2.68359L12.0035 2.68359L12.0035 4.11719Z" clip-path="url(#clip_path_2)" fill="#FFFFFF" transform="translate(0 3.313)" />
  </g>
</svg>